<svg id="visual" viewBox="0 0 900 600" width="900" height="600" xmlns="http://www.w3.org/2000/svg" xmlns:xlink="http://www.w3.org/1999/xlink" version="1.1"><rect x="0" y="0" width="900" height="600" fill="#ffffff"></rect><path d="M0 366L21.5 366.8C43 367.7 86 369.3 128.8 380.3C171.7 391.3 214.3 411.7 257.2 421.7C300 431.7 343 431.3 385.8 424C428.7 416.7 471.3 402.3 514.2 398.3C557 394.3 600 400.7 642.8 407.2C685.7 413.7 728.3 420.3 771.2 415.8C814 411.3 857 395.7 878.5 387.8L900 380L900 601L878.5 601C857 601 814 601 771.2 601C728.3 601 685.7 601 642.8 601C600 601 557 601 514.2 601C471.3 601 428.7 601 385.8 601C343 601 300 601 257.2 601C214.3 601 171.7 601 128.8 601C86 601 43 601 21.5 601L0 601Z" fill="#5167e3"></path><path d="M0 449L21.5 447.3C43 445.7 86 442.3 128.8 436C171.7 429.7 214.3 420.3 257.2 413.2C300 406 343 401 385.8 408.3C428.7 415.7 471.3 435.3 514.2 445.8C557 456.3 600 457.7 642.8 448.2C685.7 438.7 728.3 418.3 771.2 413.2C814 408 857 418 878.5 423L900 428L900 601L878.5 601C857 601 814 601 771.2 601C728.3 601 685.7 601 642.8 601C600 601 557 601 514.2 601C471.3 601 428.7 601 385.8 601C343 601 300 601 257.2 601C214.3 601 171.7 601 128.8 601C86 601 43 601 21.5 601L0 601Z" fill="#1883ea"></path><path d="M0 478L21.5 482.5C43 487 86 496 128.8 489.7C171.7 483.3 214.3 461.7 257.2 454.5C300 447.3 343 454.7 385.8 459C428.7 463.3 471.3 464.7 514.2 466C557 467.3 600 468.7 642.8 474.2C685.7 479.7 728.3 489.3 771.2 493.2C814 497 857 495 878.5 494L900 493L900 601L878.5 601C857 601 814 601 771.2 601C728.3 601 685.7 601 642.8 601C600 601 557 601 514.2 601C471.3 601 428.7 601 385.8 601C343 601 300 601 257.2 601C214.3 601 171.7 601 128.8 601C86 601 43 601 21.5 601L0 601Z" fill="#0099e7"></path><path d="M0 503L21.5 506.5C43 510 86 517 128.8 518C171.7 519 214.3 514 257.2 508C300 502 343 495 385.8 498C428.7 501 471.3 514 514.2 522.8C557 531.7 600 536.3 642.8 533.3C685.7 530.3 728.3 519.7 771.2 514.5C814 509.3 857 509.7 878.5 509.8L900 510L900 601L878.5 601C857 601 814 601 771.2 601C728.3 601 685.7 601 642.8 601C600 601 557 601 514.2 601C471.3 601 428.7 601 385.8 601C343 601 300 601 257.2 601C214.3 601 171.7 601 128.8 601C86 601 43 601 21.5 601L0 601Z" fill="#00abdb"></path><path d="M0 571L21.5 566.3C43 561.7 86 552.3 128.8 551.2C171.7 550 214.3 557 257.2 558.3C300 559.7 343 555.3 385.8 555C428.7 554.7 471.3 558.3 514.2 560.5C557 562.7 600 563.3 642.8 564.5C685.7 565.7 728.3 567.3 771.2 567.5C814 567.7 857 566.3 878.5 565.7L900 565L900 601L878.5 601C857 601 814 601 771.2 601C728.3 601 685.7 601 642.8 601C600 601 557 601 514.2 601C471.3 601 428.7 601 385.8 601C343 601 300 601 257.2 601C214.3 601 171.7 601 128.8 601C86 601 43 601 21.5 601L0 601Z" fill="#24b8c7"></path></svg>